<?xml version="1.0" encoding="UTF-8"?><svg xmlns="http://www.w3.org/2000/svg" xmlns:xlink="http://www.w3.org/1999/xlink" contentScriptType="text/ecmascript" width="375pt" zoomAndPan="magnify" contentStyleType="text/css" viewBox="0 0 375 374.999991" height="374.999991pt" preserveAspectRatio="xMidYMid meet" version="1.2"><defs><clipPath xml:id="clip1" id="clip1"><path d="M 0 133 L 201 133 L 201 331.636719 L 0 331.636719 Z M 0 133 "/></clipPath><clipPath xml:id="clip2" id="clip2"><path d="M 87 43.636719 L 375 43.636719 L 375 331.636719 L 87 331.636719 Z M 87 43.636719 "/></clipPath></defs><g xml:id="surface1" id="surface1"><g clip-rule="nonzero" clip-path="url(#clip1)"><path style=" stroke:none;fill-rule:nonzero;fill:rgb(92.158508%,94.898987%,94.119263%);fill-opacity:1;" d="M 200.132812 331.667969 L 0.105469 331.667969 L 0.105469 231.570312 C 0.132812 229.953125 0.203125 228.332031 0.308594 226.71875 C 0.414062 225.101562 0.5625 223.488281 0.746094 221.878906 C 0.933594 220.269531 1.15625 218.664062 1.417969 217.066406 C 1.683594 215.464844 1.984375 213.875 2.324219 212.289062 C 2.664062 210.707031 3.042969 209.132812 3.460938 207.566406 C 3.875 206 4.332031 204.445312 4.824219 202.902344 C 5.3125 201.359375 5.84375 199.828125 6.410156 198.308594 C 6.976562 196.792969 7.578125 195.289062 8.21875 193.800781 C 8.855469 192.3125 9.53125 190.839844 10.242188 189.382812 C 10.953125 187.929688 11.699219 186.488281 12.480469 185.070312 C 13.257812 183.652344 14.074219 182.25 14.921875 180.871094 C 15.769531 179.492188 16.652344 178.132812 17.566406 176.796875 C 18.480469 175.457031 19.425781 174.144531 20.402344 172.851562 C 21.378906 171.5625 22.390625 170.292969 23.429688 169.050781 C 24.46875 167.808594 25.535156 166.59375 26.632812 165.402344 C 27.730469 164.214844 28.859375 163.050781 30.011719 161.914062 C 31.167969 160.78125 32.347656 159.671875 33.558594 158.59375 C 34.765625 157.515625 36 156.46875 37.257812 155.449219 C 38.519531 154.433594 39.800781 153.445312 41.109375 152.488281 C 42.414062 151.53125 43.746094 150.609375 45.097656 149.71875 C 46.449219 148.828125 47.820312 147.96875 49.214844 147.144531 C 50.609375 146.320312 52.019531 145.53125 53.453125 144.773438 C 54.882812 144.019531 56.332031 143.296875 57.800781 142.613281 C 59.265625 141.925781 60.75 141.277344 62.246094 140.664062 C 63.746094 140.050781 65.257812 139.472656 66.78125 138.933594 C 68.308594 138.394531 69.847656 137.890625 71.398438 137.425781 C 72.949219 136.960938 74.507812 136.53125 76.082031 136.144531 C 77.652344 135.753906 79.230469 135.402344 80.820312 135.089844 C 82.410156 134.777344 84.003906 134.503906 85.605469 134.269531 C 87.207031 134.035156 88.8125 133.839844 90.421875 133.679688 C 92.035156 133.523438 93.648438 133.40625 95.265625 133.328125 C 96.882812 133.25 98.5 133.210938 100.117188 133.210938 C 101.738281 133.210938 103.355469 133.25 104.972656 133.328125 C 106.589844 133.40625 108.203125 133.523438 109.8125 133.679688 C 111.425781 133.839844 113.03125 134.035156 114.632812 134.269531 C 116.234375 134.503906 117.828125 134.777344 119.417969 135.089844 C 121.003906 135.402344 122.585938 135.753906 124.15625 136.144531 C 125.726562 136.53125 127.289062 136.960938 128.839844 137.425781 C 130.390625 137.890625 131.929688 138.394531 133.453125 138.933594 C 134.980469 139.472656 136.492188 140.050781 137.992188 140.664062 C 139.488281 141.277344 140.972656 141.925781 142.4375 142.613281 C 143.90625 143.296875 145.355469 144.019531 146.785156 144.773438 C 148.21875 145.53125 149.628906 146.320312 151.023438 147.144531 C 152.417969 147.96875 153.789062 148.828125 155.140625 149.71875 C 156.492188 150.609375 157.820312 151.53125 159.128906 152.488281 C 160.4375 153.445312 161.71875 154.433594 162.976562 155.449219 C 164.238281 156.46875 165.472656 157.515625 166.679688 158.59375 C 167.886719 159.671875 169.070312 160.78125 170.222656 161.914062 C 171.378906 163.050781 172.503906 164.214844 173.601562 165.402344 C 174.699219 166.59375 175.769531 167.808594 176.808594 169.050781 C 177.847656 170.292969 178.855469 171.5625 179.835938 172.851562 C 180.8125 174.144531 181.757812 175.457031 182.671875 176.796875 C 183.585938 178.132812 184.46875 179.492188 185.316406 180.871094 C 186.164062 182.25 186.976562 183.652344 187.757812 185.070312 C 188.539062 186.488281 189.285156 187.929688 189.996094 189.382812 C 190.707031 190.839844 191.378906 192.3125 192.019531 193.800781 C 192.660156 195.289062 193.261719 196.792969 193.828125 198.308594 C 194.394531 199.828125 194.921875 201.359375 195.414062 202.902344 C 195.90625 204.445312 196.359375 206 196.777344 207.566406 C 197.195312 209.132812 197.574219 210.707031 197.914062 212.289062 C 198.253906 213.875 198.554688 215.464844 198.816406 217.066406 C 199.082031 218.664062 199.304688 220.269531 199.488281 221.878906 C 199.675781 223.488281 199.820312 225.101562 199.929688 226.71875 C 200.035156 228.332031 200.101562 229.953125 200.132812 231.570312 Z M 26.675781 305.105469 L 173.5625 305.105469 L 173.5625 231.570312 C 173.589844 230.351562 173.582031 229.132812 173.546875 227.914062 C 173.511719 226.695312 173.445312 225.480469 173.351562 224.265625 C 173.253906 223.050781 173.128906 221.835938 172.972656 220.628906 C 172.816406 219.417969 172.628906 218.214844 172.414062 217.015625 C 172.195312 215.816406 171.953125 214.621094 171.675781 213.433594 C 171.402344 212.246094 171.097656 211.066406 170.761719 209.894531 C 170.429688 208.722656 170.066406 207.558594 169.671875 206.402344 C 169.28125 205.25 168.859375 204.105469 168.414062 202.972656 C 167.964844 201.839844 167.488281 200.714844 166.984375 199.605469 C 166.476562 198.496094 165.945312 197.402344 165.386719 196.316406 C 164.828125 195.234375 164.242188 194.164062 163.632812 193.113281 C 163.019531 192.058594 162.382812 191.019531 161.71875 189.996094 C 161.054688 188.976562 160.367188 187.96875 159.652344 186.980469 C 158.9375 185.992188 158.199219 185.023438 157.4375 184.074219 C 156.675781 183.121094 155.894531 182.1875 155.085938 181.277344 C 154.277344 180.363281 153.445312 179.472656 152.59375 178.601562 C 151.742188 177.730469 150.867188 176.882812 149.972656 176.054688 C 149.078125 175.226562 148.164062 174.421875 147.230469 173.640625 C 146.296875 172.859375 145.34375 172.101562 144.371094 171.367188 C 143.398438 170.632812 142.40625 169.921875 141.402344 169.238281 C 140.394531 168.550781 139.371094 167.890625 138.328125 167.257812 C 137.289062 166.625 136.234375 166.015625 135.164062 165.433594 C 134.09375 164.851562 133.007812 164.296875 131.910156 163.769531 C 130.8125 163.242188 129.703125 162.742188 128.578125 162.269531 C 127.457031 161.796875 126.324219 161.355469 125.175781 160.9375 C 124.03125 160.523438 122.878906 160.136719 121.714844 159.777344 C 120.550781 159.417969 119.378906 159.089844 118.195312 158.789062 C 117.015625 158.488281 115.828125 158.21875 114.636719 157.976562 C 113.441406 157.738281 112.242188 157.527344 111.039062 157.34375 C 109.832031 157.164062 108.625 157.011719 107.414062 156.890625 C 106.199219 156.769531 104.988281 156.679688 103.769531 156.617188 C 102.554688 156.558594 101.335938 156.527344 100.117188 156.527344 C 98.902344 156.527344 97.683594 156.558594 96.46875 156.617188 C 95.25 156.679688 94.035156 156.769531 92.824219 156.890625 C 91.613281 157.011719 90.402344 157.164062 89.199219 157.34375 C 87.996094 157.527344 86.796875 157.738281 85.601562 157.976562 C 84.40625 158.21875 83.222656 158.488281 82.039062 158.789062 C 80.859375 159.089844 79.6875 159.417969 78.523438 159.777344 C 77.359375 160.136719 76.203125 160.523438 75.058594 160.9375 C 73.914062 161.355469 72.78125 161.796875 71.65625 162.269531 C 70.535156 162.742188 69.425781 163.242188 68.328125 163.769531 C 67.230469 164.296875 66.144531 164.851562 65.074219 165.433594 C 64.003906 166.015625 62.949219 166.625 61.90625 167.257812 C 60.867188 167.890625 59.84375 168.550781 58.835938 169.238281 C 57.828125 169.921875 56.839844 170.632812 55.867188 171.367188 C 54.894531 172.101562 53.941406 172.859375 53.007812 173.640625 C 52.074219 174.421875 51.15625 175.226562 50.261719 176.054688 C 49.367188 176.882812 48.496094 177.730469 47.644531 178.601562 C 46.789062 179.472656 45.960938 180.363281 45.152344 181.277344 C 44.34375 182.1875 43.558594 183.121094 42.796875 184.074219 C 42.035156 185.023438 41.296875 185.992188 40.585938 186.980469 C 39.871094 187.96875 39.183594 188.976562 38.519531 189.996094 C 37.855469 191.019531 37.21875 192.058594 36.605469 193.113281 C 35.992188 194.164062 35.410156 195.234375 34.847656 196.316406 C 34.289062 197.402344 33.757812 198.496094 33.253906 199.605469 C 32.75 200.714844 32.273438 201.839844 31.824219 202.972656 C 31.375 204.105469 30.957031 205.25 30.5625 206.402344 C 30.171875 207.558594 29.808594 208.722656 29.476562 209.894531 C 29.140625 211.066406 28.835938 212.246094 28.5625 213.433594 C 28.285156 214.621094 28.039062 215.816406 27.824219 217.015625 C 27.609375 218.214844 27.421875 219.417969 27.265625 220.628906 C 27.109375 221.835938 26.984375 223.050781 26.886719 224.265625 C 26.789062 225.480469 26.726562 226.695312 26.691406 227.914062 C 26.652344 229.132812 26.648438 230.351562 26.675781 231.570312 Z M 26.675781 305.105469 "/></g><g clip-rule="nonzero" clip-path="url(#clip2)"><path style=" stroke:none;fill-rule:nonzero;fill:rgb(92.158508%,94.898987%,94.119263%);fill-opacity:1;" d="M 374.925781 331.667969 L 87.175781 331.667969 L 87.175781 187.652344 C 87.175781 185.296875 87.234375 182.941406 87.347656 180.585938 C 87.464844 178.230469 87.636719 175.882812 87.867188 173.535156 C 88.097656 171.191406 88.386719 168.851562 88.734375 166.519531 C 89.078125 164.1875 89.480469 161.867188 89.941406 159.554688 C 90.398438 157.246094 90.914062 154.945312 91.488281 152.660156 C 92.058594 150.371094 92.6875 148.101562 93.371094 145.847656 C 94.054688 143.589844 94.792969 141.355469 95.585938 139.132812 C 96.378906 136.914062 97.226562 134.71875 98.128906 132.539062 C 99.027344 130.363281 99.984375 128.207031 100.988281 126.078125 C 101.996094 123.945312 103.054688 121.84375 104.164062 119.761719 C 105.273438 117.683594 106.433594 115.632812 107.644531 113.613281 C 108.855469 111.589844 110.113281 109.601562 111.421875 107.640625 C 112.730469 105.679688 114.085938 103.753906 115.488281 101.863281 C 116.890625 99.96875 118.339844 98.113281 119.835938 96.289062 C 121.328125 94.46875 122.867188 92.683594 124.445312 90.9375 C 126.027344 89.191406 127.652344 87.484375 129.316406 85.816406 C 130.980469 84.152344 132.6875 82.527344 134.429688 80.945312 C 136.175781 79.359375 137.957031 77.820312 139.777344 76.328125 C 141.597656 74.832031 143.453125 73.382812 145.34375 71.976562 C 147.234375 70.574219 149.160156 69.214844 151.117188 67.90625 C 153.074219 66.597656 155.066406 65.335938 157.085938 64.125 C 159.105469 62.914062 161.152344 61.753906 163.230469 60.640625 C 165.304688 59.53125 167.40625 58.472656 169.535156 57.464844 C 171.664062 56.457031 173.816406 55.5 175.992188 54.597656 C 178.167969 53.695312 180.363281 52.847656 182.582031 52.054688 C 184.796875 51.261719 187.03125 50.523438 189.285156 49.835938 C 191.539062 49.152344 193.808594 48.523438 196.09375 47.953125 C 198.375 47.378906 200.671875 46.863281 202.980469 46.402344 C 205.292969 45.945312 207.609375 45.539062 209.941406 45.195312 C 212.269531 44.847656 214.605469 44.5625 216.949219 44.328125 C 219.292969 44.097656 221.640625 43.925781 223.992188 43.808594 C 226.34375 43.695312 228.695312 43.636719 231.050781 43.636719 C 233.40625 43.636719 235.757812 43.695312 238.109375 43.808594 C 240.460938 43.925781 242.808594 44.097656 245.152344 44.328125 C 247.496094 44.5625 249.832031 44.847656 252.160156 45.195312 C 254.492188 45.539062 256.808594 45.945312 259.121094 46.402344 C 261.429688 46.863281 263.726562 47.378906 266.007812 47.953125 C 268.292969 48.523438 270.5625 49.152344 272.816406 49.835938 C 275.070312 50.523438 277.304688 51.261719 279.519531 52.054688 C 281.738281 52.847656 283.933594 53.695312 286.109375 54.597656 C 288.285156 55.5 290.4375 56.457031 292.566406 57.464844 C 294.695312 58.472656 296.796875 59.53125 298.871094 60.640625 C 300.949219 61.753906 302.996094 62.914062 305.015625 64.125 C 307.035156 65.335938 309.027344 66.597656 310.984375 67.90625 C 312.941406 69.21875 314.867188 70.574219 316.757812 71.976562 C 318.648438 73.382812 320.503906 74.832031 322.324219 76.328125 C 324.144531 77.820312 325.925781 79.359375 327.671875 80.945312 C 329.417969 82.527344 331.121094 84.152344 332.785156 85.816406 C 334.449219 87.484375 336.074219 89.191406 337.65625 90.9375 C 339.238281 92.683594 340.773438 94.46875 342.269531 96.289062 C 343.761719 98.113281 345.210938 99.96875 346.613281 101.863281 C 348.015625 103.753906 349.371094 105.679688 350.679688 107.640625 C 351.988281 109.601562 353.246094 111.589844 354.457031 113.613281 C 355.667969 115.632812 356.828125 117.683594 357.9375 119.761719 C 359.046875 121.84375 360.105469 123.945312 361.113281 126.078125 C 362.117188 128.207031 363.074219 130.363281 363.972656 132.539062 C 364.875 134.71875 365.722656 136.914062 366.515625 139.132812 C 367.308594 141.355469 368.046875 143.589844 368.730469 145.847656 C 369.414062 148.101562 370.042969 150.371094 370.613281 152.660156 C 371.1875 154.945312 371.703125 157.246094 372.160156 159.554688 C 372.621094 161.867188 373.023438 164.1875 373.367188 166.519531 C 373.714844 168.851562 374.003906 171.191406 374.234375 173.535156 C 374.464844 175.882812 374.636719 178.230469 374.753906 180.585938 C 374.867188 182.941406 374.925781 185.296875 374.925781 187.652344 Z M 113.898438 305.105469 L 348.511719 305.105469 L 348.511719 187.652344 C 348.511719 185.730469 348.464844 183.808594 348.371094 181.890625 C 348.277344 179.972656 348.136719 178.054688 347.949219 176.144531 C 347.757812 174.230469 347.523438 172.324219 347.242188 170.421875 C 346.960938 168.523438 346.632812 166.628906 346.257812 164.746094 C 345.882812 162.859375 345.464844 160.984375 344.996094 159.121094 C 344.53125 157.257812 344.019531 155.40625 343.460938 153.566406 C 342.902344 151.726562 342.300781 149.902344 341.65625 148.09375 C 341.007812 146.285156 340.316406 144.492188 339.582031 142.71875 C 338.847656 140.941406 338.070312 139.183594 337.25 137.449219 C 336.429688 135.710938 335.566406 133.996094 334.660156 132.300781 C 333.757812 130.605469 332.808594 128.933594 331.824219 127.285156 C 330.835938 125.636719 329.808594 124.015625 328.742188 122.417969 C 327.675781 120.820312 326.570312 119.246094 325.425781 117.703125 C 324.285156 116.160156 323.101562 114.644531 321.886719 113.160156 C 320.667969 111.675781 319.414062 110.222656 318.125 108.796875 C 316.835938 107.371094 315.511719 105.980469 314.152344 104.621094 C 312.796875 103.265625 311.40625 101.9375 309.984375 100.648438 C 308.5625 99.359375 307.109375 98.101562 305.625 96.882812 C 304.140625 95.664062 302.628906 94.484375 301.085938 93.339844 C 299.542969 92.195312 297.972656 91.085938 296.378906 90.019531 C 294.78125 88.953125 293.160156 87.925781 291.515625 86.9375 C 289.867188 85.949219 288.195312 85 286.503906 84.097656 C 284.8125 83.191406 283.097656 82.328125 281.359375 81.503906 C 279.625 80.683594 277.871094 79.90625 276.097656 79.167969 C 274.324219 78.433594 272.53125 77.742188 270.726562 77.09375 C 268.917969 76.449219 267.09375 75.84375 265.257812 75.289062 C 263.421875 74.730469 261.570312 74.21875 259.710938 73.75 C 257.847656 73.28125 255.972656 72.863281 254.089844 72.488281 C 252.207031 72.113281 250.316406 71.785156 248.417969 71.5 C 246.519531 71.21875 244.613281 70.984375 242.703125 70.796875 C 240.792969 70.609375 238.878906 70.464844 236.960938 70.371094 C 235.042969 70.277344 233.125 70.230469 231.207031 70.230469 C 229.285156 70.230469 227.367188 70.277344 225.449219 70.371094 C 223.53125 70.464844 221.617188 70.609375 219.707031 70.796875 C 217.796875 70.984375 215.894531 71.21875 213.992188 71.5 C 212.09375 71.785156 210.203125 72.113281 208.320312 72.488281 C 206.4375 72.863281 204.566406 73.28125 202.703125 73.75 C 200.839844 74.21875 198.992188 74.730469 197.152344 75.289062 C 195.316406 75.84375 193.496094 76.449219 191.6875 77.09375 C 189.878906 77.742188 188.089844 78.433594 186.316406 79.167969 C 184.542969 79.90625 182.785156 80.683594 181.050781 81.503906 C 179.316406 82.328125 177.601562 83.191406 175.910156 84.097656 C 174.214844 85 172.546875 85.949219 170.898438 86.9375 C 169.253906 87.925781 167.628906 88.953125 166.035156 90.019531 C 164.4375 91.085938 162.867188 92.195312 161.328125 93.339844 C 159.785156 94.484375 158.273438 95.664062 156.789062 96.882812 C 155.304688 98.101562 153.851562 99.359375 152.429688 100.648438 C 151.003906 101.9375 149.617188 103.265625 148.257812 104.621094 C 146.902344 105.980469 145.578125 107.371094 144.289062 108.796875 C 143 110.222656 141.746094 111.675781 140.527344 113.160156 C 139.308594 114.644531 138.128906 116.160156 136.984375 117.703125 C 135.839844 119.246094 134.734375 120.820312 133.667969 122.417969 C 132.601562 124.015625 131.578125 125.636719 130.589844 127.285156 C 129.601562 128.933594 128.65625 130.605469 127.75 132.300781 C 126.847656 133.996094 125.984375 135.710938 125.164062 137.449219 C 124.34375 139.183594 123.5625 140.941406 122.828125 142.71875 C 122.09375 144.492188 121.402344 146.285156 120.757812 148.09375 C 120.109375 149.902344 119.507812 151.726562 118.953125 153.566406 C 118.394531 155.40625 117.882812 157.257812 117.414062 159.121094 C 116.949219 160.984375 116.527344 162.859375 116.152344 164.746094 C 115.78125 166.628906 115.453125 168.523438 115.167969 170.421875 C 114.886719 172.324219 114.652344 174.230469 114.464844 176.144531 C 114.277344 178.054688 114.136719 179.972656 114.042969 181.890625 C 113.945312 183.808594 113.898438 185.730469 113.898438 187.652344 Z M 113.898438 305.105469 "/></g></g></svg>